# xmcd
#
# Track frame offsets: 
#        150
#        14708
#        29573
#        39952
#        52838
#        65153
#        84991
#        97703
#        110109
#        126450
#
# Disc length: 1852 seconds
#
# Revision: 0
# Processed by: cddbd v1.4PL0 Copyright (c) Steve Scherf et al.
# Submitted via: ExactAudioCopy v0.95a4
#
DISCID=83073a0a
DTITLE=Conway Twitty - Number Ones
DYEAR=1980
DGENRE=Country
TTITLE0=I'd just love to lay you down
TTITLE1=Touch my hand
TTITLE2=Boogie grass band
TTITLE3=A bridge that just won't burn
TTITLE4=I may never get to heaven
TTITLE5=Rest your love on me
TTITLE6=Happy birthday darlin'
TTITLE7=I see the want to in your eyes
TTITLE8=Don't take it away
TTITLE9=I've never seen the likes of you
EXTD=
EXTT0=
EXTT1=
EXTT2=
EXTT3=
EXTT4=
EXTT5=
EXTT6=
EXTT7=
EXTT8=
EXTT9=
PLAYORDER=
